<?xml version="1.0" standalone="no"?>
<!DOCTYPE svg PUBLIC "-//W3C//DTD SVG 20010904//EN"
 "http://www.w3.org/TR/2001/REC-SVG-20010904/DTD/svg10.dtd">
<svg version="1.0" xmlns="http://www.w3.org/2000/svg"
 width="1440.000000pt" height="900.000000pt" viewBox="0 0 1440.000000 900.000000"
 preserveAspectRatio="xMidYMid meet">

<g transform="translate(0.000000,900.000000) scale(0.100000,-0.100000)"
fill="#000000" stroke="none">
<path d="M0 4500 l0 -4500 7200 0 7200 0 0 4500 0 4500 -7200 0 -7200 0 0
-4500z m10713 3736 c103 -43 128 -177 48 -257 -112 -113 -296 -12 -267 146 18
94 128 150 219 111z m-3470 -1037 c10 -14 21 -43 23 -65 5 -35 -3 -54 -73
-174 -44 -74 -121 -207 -172 -295 -51 -88 -96 -163 -100 -168 -12 -12 -201
323 -201 357 0 20 33 88 96 198 105 184 112 189 149 112 25 -52 16 -86 -54
-203 l-61 -103 31 -54 c17 -30 34 -52 39 -49 4 3 70 111 145 240 76 130 142
234 148 232 6 -2 19 -15 30 -28z m287 1 c40 -56 31 -101 -42 -225 -36 -60 -81
-138 -101 -172 l-36 -63 72 0 72 0 68 120 c62 107 71 118 87 108 27 -17 45
-55 45 -97 0 -29 -22 -76 -98 -207 -276 -477 -385 -659 -398 -659 -20 0 -59
64 -59 98 0 21 42 103 135 263 74 127 135 234 135 238 0 3 -30 6 -68 6 l-67 0
-105 -180 c-58 -99 -108 -180 -111 -180 -19 0 -52 54 -56 94 -5 44 0 55 232
453 131 224 242 414 248 421 14 18 24 15 47 -18z m-6094 -98 c90 -46 150 -149
142 -244 -12 -140 -113 -233 -253 -233 -49 0 -82 6 -109 19 -192 95 -194 360
-4 456 55 28 70 31 123 27 33 -2 79 -14 101 -25z m12440 -406 c26 -26 34 -42
34 -71 0 -29 -8 -45 -34 -71 -26 -26 -42 -34 -71 -34 -29 0 -45 8 -71 34 -26
26 -34 42 -34 71 0 29 8 45 34 71 26 26 42 34 71 34 29 0 45 -8 71 -34z
m-7999 -1253 c-3 -32 -9 -95 -13 -140 l-7 -83 -42 0 -42 0 -6 63 c-4 34 -9 97
-13 140 l-7 77 68 0 68 0 -6 -57z m1963 -303 l0 -360 -70 0 -70 0 0 360 0 360
70 0 70 0 0 -360z m-3384 108 c37 -120 70 -216 72 -213 3 2 35 102 72 222 l67
218 54 3 54 3 64 -213 c35 -117 68 -220 72 -228 5 -10 10 -2 18 25 6 22 38
123 70 225 l59 185 66 3 c44 2 66 -1 66 -8 0 -7 -50 -164 -111 -351 l-110
-339 -53 0 -53 0 -68 225 c-38 124 -72 222 -76 217 -4 -4 -32 -90 -64 -192
-31 -102 -61 -200 -66 -217 -10 -32 -13 -33 -63 -33 l-52 0 -16 48 c-80 244
-208 642 -208 646 0 10 125 11 131 1 4 -5 37 -108 75 -227z m5582 114 l3 -103
37 1 c74 4 72 5 72 -55 l0 -55 -55 0 -55 0 0 -185 0 -185 -70 0 -70 0 0 185 0
185 -55 0 -55 0 0 55 0 55 55 0 55 0 0 98 c0 54 3 102 7 106 4 4 34 6 68 4
l60 -3 3 -103z m-4497 -113 c48 -24 103 -89 117 -138 14 -44 15 -110 4 -128
-6 -9 -58 -13 -182 -15 l-175 -3 37 -40 c35 -38 39 -40 96 -40 48 0 67 5 92
24 l32 23 36 -35 c42 -42 39 -56 -22 -92 -56 -33 -142 -43 -215 -25 -91 22
-169 110 -185 210 -7 45 13 132 39 171 67 102 218 143 326 88z m1177 -1 c78
-37 126 -127 120 -223 l-3 -50 -172 -3 c-95 -1 -173 -6 -173 -11 0 -5 9 -20
21 -34 40 -52 138 -60 194 -15 l26 21 40 -39 39 -38 -21 -22 c-84 -89 -281
-82 -371 13 -60 63 -83 165 -57 257 12 42 77 119 121 142 71 37 160 38 236 2z
m2445 0 c92 -40 157 -155 143 -256 -19 -137 -138 -231 -280 -220 -142 12 -236
113 -236 253 0 191 187 302 373 223z m517 2 c19 -10 44 -27 54 -39 19 -21 19
-22 -18 -60 l-38 -39 -36 24 c-28 19 -47 24 -82 22 -41 -3 -45 -5 -45 -28 0
-22 8 -28 65 -47 101 -35 130 -53 152 -97 34 -67 13 -139 -56 -190 -23 -18
-42 -21 -119 -21 -98 0 -149 17 -191 64 -19 21 -19 22 19 61 l38 39 24 -19
c36 -28 90 -43 129 -35 76 14 47 61 -54 90 -111 32 -142 66 -142 155 0 70 45
121 125 141 43 11 134 0 175 -21z m-3349 -7 l21 -21 -42 -46 c-34 -37 -45 -44
-60 -36 -32 17 -78 11 -107 -14 l-28 -24 -3 -161 -3 -161 -65 0 -64 0 0 240 0
240 65 0 c53 0 65 -3 65 -16 0 -14 5 -13 33 5 44 30 156 26 188 -6z m1093 2
c34 -23 36 -23 36 -5 0 18 7 20 65 20 l64 0 3 -57 c2 -32 2 -140 0 -240 l-3
-183 -64 0 c-58 0 -65 2 -65 19 0 19 -2 19 -42 -4 -73 -42 -172 -31 -242 27
-103 85 -117 265 -28 368 50 59 94 79 173 80 54 0 73 -4 103 -25z m909 -8 l36
-27 37 25 c48 33 72 38 143 33 45 -3 68 -11 95 -32 65 -49 70 -70 74 -273 l4
-183 -71 0 -71 0 0 160 c0 157 -1 161 -25 185 -17 18 -35 25 -62 25 -80 -1
-93 -31 -93 -219 l0 -151 -65 0 -65 0 0 154 c0 152 0 155 -26 185 -32 38 -87
43 -128 10 l-26 -20 0 -165 0 -164 -70 0 -70 0 0 240 0 240 70 0 c53 0 70 -3
70 -14 0 -11 8 -10 38 6 56 29 157 22 205 -15z m5132 -584 c43 -104 123 -296
178 -428 54 -132 122 -294 149 -360 28 -66 92 -225 144 -353 l94 -234 -22 -41
c-11 -23 -31 -57 -43 -77 -12 -19 -41 -68 -65 -109 -40 -70 -44 -73 -57 -55
-8 10 -20 18 -26 16 -6 -2 -3 5 6 16 13 14 15 22 7 27 -6 4 -9 13 -6 21 3 8 2
14 -2 14 -4 0 -70 -105 -147 -232 -77 -128 -144 -240 -150 -249 -5 -9 -20 -35
-33 -58 -12 -22 -29 -41 -37 -41 -8 0 -41 54 -78 128 -244 482 -407 802 -418
820 -12 19 -52 38 -72 34 -4 -1 -2 7 5 18 7 11 16 20 21 20 4 0 5 5 2 10 -3 6
-2 10 2 10 5 0 17 15 28 33 10 17 23 35 29 39 6 4 12 11 12 15 5 26 18 53 26
53 5 0 6 5 3 10 -3 6 -1 10 4 10 6 0 11 9 11 19 0 11 3 21 8 23 8 3 70 90 69
98 0 3 16 31 37 62 20 31 36 62 36 68 0 5 4 10 9 10 5 0 14 13 21 30 7 16 35
62 62 102 27 39 59 90 70 112 11 23 30 50 41 61 l21 19 -50 13 c-68 17 -65 20
-208 -159 -25 -32 -46 -61 -46 -65 0 -5 -10 -20 -23 -35 -12 -15 -35 -46 -51
-68 -17 -22 -33 -40 -38 -40 -4 0 -8 -5 -8 -11 0 -10 -46 -80 -81 -123 -38
-48 -61 -79 -94 -131 -22 -33 -42 -62 -45 -65 -16 -15 -38 -61 -48 -102 -10
-38 -9 -59 4 -115 8 -37 21 -81 29 -98 7 -16 22 -64 34 -104 12 -41 27 -78 34
-83 6 -4 9 -8 4 -8 -4 0 -1 -13 8 -30 9 -16 14 -30 11 -30 -2 0 9 -36 25 -80
15 -44 26 -80 23 -80 -2 0 2 -13 11 -30 8 -16 15 -33 16 -37 0 -21 24 -89 33
-98 6 -5 11 -28 10 -50 -1 -48 5 -62 18 -44 7 11 8 9 4 -5 -4 -10 2 -32 12
-50 10 -17 18 -48 17 -69 0 -22 3 -36 10 -34 5 3 10 -5 11 -17 1 -32 8 -50 23
-62 8 -6 11 -18 8 -28 -4 -9 -2 -16 4 -16 6 0 8 -7 5 -16 -4 -10 0 -18 13 -21
12 -3 18 -12 16 -23 -4 -20 20 -34 37 -23 7 4 8 1 4 -6 -5 -7 -14 -10 -22 -7
-8 3 -11 0 -7 -9 3 -8 10 -12 16 -8 6 3 7 1 3 -5 -4 -7 7 -41 24 -76 18 -36
29 -69 26 -75 -4 -6 9 -42 29 -81 20 -39 33 -75 30 -80 -3 -5 -29 -6 -58 -4
-426 38 -1077 97 -1201 109 -87 8 -161 14 -163 12 -2 -2 22 -97 52 -212 l55
-207 -157 -202 c-367 -470 -425 -541 -435 -541 -6 0 -19 25 -31 55 -11 30 -26
61 -34 69 -8 7 -12 20 -9 27 3 8 0 13 -6 11 -7 -1 -12 3 -13 8 -1 17 -28 90
-34 95 -13 11 -40 71 -28 63 10 -6 -5 15 -53 74 -6 7 -10 15 -10 18 1 19 -2
25 -14 38 -8 7 -24 33 -35 58 -12 24 -34 67 -50 94 -15 28 -48 88 -73 135 -66
124 -80 147 -100 159 -20 12 -140 38 -213 45 -86 9 -149 17 -165 21 -8 2 -46
7 -85 10 -38 4 -78 9 -88 11 -35 10 -77 -7 -93 -37 -12 -23 -12 -30 -2 -28 16
3 73 -7 188 -31 75 -17 92 -20 175 -36 44 -8 89 -19 100 -24 11 -5 41 -11 68
-15 42 -6 46 -8 37 -24 -7 -14 -1 -43 24 -112 19 -52 68 -189 110 -305 69
-193 84 -244 71 -244 -5 0 -350 76 -389 86 -29 7 -29 7 -10 -14 34 -37 45 -52
38 -52 -4 0 -56 12 -115 26 l-107 25 -60 132 c-74 161 -280 620 -332 739 l-38
86 267 224 c146 124 310 262 365 309 l99 83 196 -2 c108 -1 251 -5 319 -8 73
-4 122 -3 122 3 0 5 -25 49 -56 99 -32 49 -69 109 -84 134 -15 25 -92 149
-170 275 -79 127 -158 256 -177 287 l-34 57 128 144 c70 78 270 300 443 492
173 192 349 387 392 435 l76 86 554 64 c304 35 636 73 738 85 102 13 201 23
221 24 l36 1 78 -187z m-7825 -523 l0 -360 -65 0 c-57 0 -65 2 -65 19 0 17 -3
17 -47 -5 -89 -46 -195 -25 -262 51 -47 54 -63 98 -63 176 0 107 49 192 135
233 50 23 153 21 195 -4 18 -11 35 -20 37 -20 3 0 5 61 5 135 l0 135 65 0 65
0 0 -360z m2110 0 l0 -360 -65 0 -65 0 0 360 0 360 65 0 65 0 0 -360z m2420
225 l0 -135 37 20 c55 30 144 27 199 -5 73 -43 84 -80 84 -288 l0 -177 -64 0
-65 0 -3 161 -3 161 -28 24 c-39 33 -99 33 -132 -1 -24 -24 -25 -28 -25 -185
l0 -160 -70 0 -70 0 0 360 0 360 70 0 70 0 0 -135z m566 -77 c-9 -281 -6 -268
-66 -268 l-48 0 -6 133 c-4 72 -9 180 -12 240 l-6 107 72 0 72 0 -6 -212z
m-4058 75 l3 -103 54 0 55 0 0 -55 0 -55 -55 0 -55 0 0 -185 0 -185 -65 0 -65
0 -2 183 -3 182 -57 3 -58 3 0 54 0 54 58 3 57 3 3 103 3 103 62 -3 62 -3 3
-102z m-2318 -110 c92 -37 159 -165 136 -257 l-6 -26 -175 0 -176 0 15 -29
c32 -61 144 -78 207 -32 l26 20 38 -39 c20 -21 34 -43 31 -49 -19 -30 -100
-64 -165 -69 -121 -8 -211 40 -263 141 -25 51 -28 154 -6 207 55 129 205 188
338 133z m531 -12 c29 -21 29 -21 29 -1 0 18 6 20 65 20 l65 0 0 -240 0 -240
-65 0 c-58 0 -65 2 -65 19 0 19 -2 19 -42 -4 -73 -42 -172 -31 -242 27 -131
108 -110 348 38 426 67 35 164 32 217 -7z m2295 14 c146 -59 199 -253 104
-383 -59 -82 -181 -121 -286 -93 -174 47 -242 270 -123 405 76 86 198 115 305
71z m2684 3 c14 -5 40 -21 58 -35 l34 -25 -42 -43 -43 -44 -36 20 c-42 23 -79
24 -126 5 -66 -28 -89 -136 -40 -195 46 -54 134 -62 184 -17 16 14 21 12 61
-29 l45 -46 -30 -24 c-89 -72 -233 -73 -327 -2 -114 87 -131 254 -37 361 74
84 194 113 299 74z m-5900 -3 c17 -9 30 -20 30 -26 0 -6 -16 -30 -36 -55 -30
-36 -39 -42 -54 -34 -35 19 -89 12 -115 -15 -24 -24 -25 -28 -25 -185 l0 -160
-70 0 -70 0 0 240 0 240 70 0 c55 0 70 -3 70 -15 0 -12 6 -11 33 5 39 24 125
27 167 5z m4193 -4 c29 -15 37 -16 37 -5 0 11 17 14 70 14 l70 0 0 -240 0
-240 -70 0 c-56 0 -70 3 -70 15 0 19 2 19 -45 -5 -49 -25 -127 -26 -180 -1
-91 41 -139 124 -139 236 1 102 48 185 126 224 56 27 149 29 201 2z m717 -145
c0 -172 -8 -212 -53 -263 -100 -114 -302 -92 -366 41 -19 37 -21 61 -21 209
l0 167 64 0 65 0 3 -161 3 -161 29 -25 c24 -20 36 -24 65 -19 65 10 71 28 71
206 l0 159 28 3 c15 2 46 1 70 -1 l42 -3 0 -152z m483 132 c66 -51 77 -91 77
-286 l0 -172 -70 0 -70 0 0 160 c0 157 -1 161 -25 185 -33 34 -93 34 -132 1
l-28 -24 -3 -161 -3 -161 -65 0 -64 0 0 240 0 240 65 0 c51 0 65 -3 65 -15 0
-19 -2 -19 45 6 59 30 159 24 208 -13z m-3495 -30 c11 -29 34 -95 52 -146 18
-51 35 -90 39 -87 3 3 28 68 57 143 l51 137 73 3 c66 3 72 1 66 -15 -4 -10
-71 -163 -149 -340 l-142 -323 -72 0 -72 0 55 115 c30 63 54 121 54 128 0 8
-38 106 -85 218 -47 112 -85 207 -85 212 0 4 31 7 69 7 l70 0 19 -52z m-4572
-222 c26 -26 34 -42 34 -71 0 -52 -53 -105 -105 -105 -52 0 -105 53 -105 105
0 52 53 105 105 105 29 0 45 -8 71 -34z m9438 -76 c28 -28 26 -83 -4 -115 -50
-53 -140 -16 -140 57 1 78 89 113 144 58z m-5569 -872 c-24 -74 -32 -78 -48
-22 l-15 49 -11 -30 c-28 -73 -26 -73 -49 -7 -11 34 -17 62 -13 62 4 0 14 -19
21 -42 l13 -43 13 30 c7 17 13 36 14 43 1 27 20 10 30 -28 10 -37 30 -47 30
-15 0 21 20 68 26 62 3 -3 -2 -30 -11 -59z m155 30 c0 -14 5 -18 15 -14 9 3
24 -3 35 -14 20 -20 20 -20 41 1 24 24 37 22 57 -9 14 -21 13 -22 -23 -22 -25
0 -35 -4 -32 -12 2 -7 16 -12 31 -11 14 1 24 -2 21 -8 -10 -15 -53 -10 -65 9
-9 16 -11 16 -20 0 -7 -12 -22 -17 -45 -16 l-35 1 0 64 c0 40 4 62 10 58 6 -3
10 -15 10 -27z m177 -65 c-2 -21 -4 -6 -4 32 0 39 2 55 4 38 2 -18 2 -50 0
-70z m423 65 c0 -14 5 -18 15 -14 8 3 21 -2 30 -10 17 -17 21 -74 5 -74 -5 0
-10 16 -10 35 0 28 -4 35 -20 35 -16 0 -20 -7 -20 -35 0 -19 -4 -35 -10 -35
-6 0 -10 29 -10 66 0 41 4 63 10 59 6 -3 10 -15 10 -27z m210 6 c0 -20 4 -24
18 -20 12 4 26 -1 37 -14 15 -17 16 -24 7 -45 -9 -20 -18 -24 -47 -23 l-35 1
0 64 c0 35 4 63 10 63 6 0 10 -12 10 -26z m510 -39 c0 -37 -4 -65 -10 -65 -6
0 -10 28 -10 65 0 37 4 65 10 65 6 0 10 -28 10 -65z m980 54 c0 -5 -5 -7 -10
-4 -6 3 -13 -1 -17 -10 -3 -10 0 -21 8 -26 10 -6 10 -9 2 -9 -8 0 -13 -14 -13
-35 0 -19 -4 -35 -10 -35 -5 0 -10 16 -10 35 0 21 -5 35 -12 36 -10 0 -10 2 0
6 6 2 12 10 12 17 0 16 21 36 37 36 7 0 13 -5 13 -11z m620 -54 c0 -37 -4 -65
-10 -65 -6 0 -10 28 -10 65 0 37 4 65 10 65 6 0 10 -28 10 -65z m880 2 l0 -64
-35 -1 c-29 -1 -38 3 -47 24 -11 23 -9 29 10 45 13 10 30 15 37 12 11 -4 15 2
15 21 0 14 5 26 10 26 6 0 10 -28 10 -63z m-3580 49 c0 -3 -4 -8 -10 -11 -5
-3 -10 -1 -10 4 0 6 5 11 10 11 6 0 10 -2 10 -4z m330 -16 c0 -11 6 -20 13
-20 9 0 9 -2 0 -8 -6 -4 -13 -23 -16 -42 l-4 -35 -1 38 c-1 20 -7 37 -13 37
-8 0 -8 4 1 15 6 8 9 19 5 25 -3 5 -1 10 4 10 6 0 11 -9 11 -20z m530 0 c0
-11 6 -20 13 -21 10 0 10 -2 0 -6 -7 -2 -13 -20 -13 -39 0 -19 -4 -34 -10 -34
-5 0 -10 16 -10 35 0 21 -5 35 -12 36 -10 0 -10 2 0 6 6 2 12 13 12 24 0 10 5
19 10 19 6 0 10 -9 10 -20z m370 0 c0 -11 6 -20 13 -21 10 0 10 -2 0 -6 -7 -2
-13 -20 -13 -39 0 -19 -4 -34 -10 -34 -5 0 -10 15 -10 34 0 50 -28 57 -32 8
-2 -27 -8 -38 -22 -41 -23 -4 -46 24 -46 56 0 35 18 27 22 -9 4 -46 31 -44 38
2 4 26 9 34 23 32 11 -2 17 4 17 18 0 11 5 20 10 20 6 0 10 -9 10 -20z m50 16
c0 -3 -4 -8 -10 -11 -5 -3 -10 -1 -10 4 0 6 5 11 10 11 6 0 10 -2 10 -4z
m1610 -6 c0 -5 -2 -10 -4 -10 -3 0 -8 5 -11 10 -3 6 -1 10 4 10 6 0 11 -4 11
-10z m590 0 c0 -5 -2 -10 -4 -10 -3 0 -8 5 -11 10 -3 6 -1 10 4 10 6 0 11 -4
11 -10z m-3776 -36 c25 -24 19 -34 -20 -34 -32 0 -35 -2 -24 -15 8 -10 21 -13
33 -9 13 4 17 2 13 -5 -9 -15 -39 -14 -54 1 -18 18 -15 55 6 67 23 14 28 14
46 -5z m367 6 c30 -17 24 -40 -12 -40 -20 0 -29 -4 -26 -12 2 -7 14 -13 26
-12 11 0 21 -3 21 -8 0 -12 -44 -10 -58 4 -18 18 -15 55 6 67 21 13 20 13 43
1z m170 0 c30 -17 24 -40 -12 -40 -20 0 -29 -4 -26 -12 2 -7 13 -13 25 -12 12
0 19 -3 16 -8 -8 -12 -38 -10 -52 4 -18 18 -15 55 6 67 21 13 20 13 43 1z
m270 0 c30 -17 24 -40 -12 -40 -20 0 -29 -4 -26 -12 2 -7 13 -13 25 -12 12 0
19 -3 16 -8 -8 -12 -38 -10 -52 4 -18 18 -15 55 6 67 21 13 20 13 43 1z m223
-6 c25 -24 19 -34 -20 -34 -24 0 -34 -4 -31 -12 2 -7 16 -12 31 -11 14 1 24
-2 21 -8 -9 -13 -39 -11 -53 3 -18 18 -15 55 6 67 23 14 28 14 46 -5z m71 6
c3 -6 -4 -10 -17 -10 -23 -1 -23 -1 4 -21 16 -12 25 -26 21 -34 -6 -16 -53
-21 -53 -6 0 5 9 7 20 4 11 -3 20 0 20 5 0 6 -9 16 -20 22 -22 12 -27 36 -7
43 19 8 25 8 32 -3z m160 0 c3 -6 -4 -10 -17 -11 l-23 0 23 -16 c30 -21 29
-53 -2 -53 -14 0 -28 5 -31 10 -4 7 2 9 19 4 31 -7 35 10 6 26 -22 12 -27 36
-7 43 19 8 25 8 32 -3z m89 -6 c31 -31 13 -74 -31 -74 -16 0 -27 9 -35 26 -11
23 -10 29 11 45 28 23 35 23 55 3z m297 6 c12 -7 19 -21 19 -40 0 -23 -5 -31
-25 -36 -15 -4 -32 -1 -40 6 -20 17 -19 57 3 69 21 13 20 13 43 1z m97 -2 c7
-7 11 -28 11 -47 l-2 -36 -6 35 c-4 26 -11 35 -26 35 -15 0 -22 -9 -26 -35
l-6 -35 -2 42 c-1 40 2 44 40 52 3 0 10 -4 17 -11z m77 2 c3 -6 -4 -10 -17
-10 -23 -1 -23 -1 4 -21 16 -12 25 -26 21 -34 -6 -16 -53 -21 -53 -6 0 5 9 7
20 4 11 -3 20 0 20 5 0 6 -9 16 -20 22 -22 12 -27 36 -7 43 19 8 25 8 32 -3z
m112 3 c15 -6 13 -8 -12 -13 -24 -4 -30 -10 -30 -30 0 -21 4 -25 28 -23 15 1
25 -2 22 -8 -9 -14 -42 -11 -59 7 -21 20 -20 30 4 54 23 23 22 23 47 13z m87
-9 c31 -31 13 -74 -31 -74 -16 0 -27 9 -35 26 -11 23 -10 29 11 45 28 23 35
23 55 3z m116 6 c26 16 40 -1 38 -44 l-1 -41 -4 38 c-5 47 -39 54 -49 10 -10
-48 -12 -49 -13 -10 -1 30 -5 37 -21 37 -16 0 -20 -7 -20 -35 0 -19 -4 -35
-10 -35 -5 0 -10 18 -10 39 0 33 4 40 23 43 12 2 29 1 38 -3 8 -4 21 -4 29 1z
m124 -6 c25 -24 19 -34 -20 -34 -24 0 -34 -4 -31 -12 2 -7 17 -12 33 -11 27 2
28 1 10 -12 -39 -29 -81 30 -45 66 23 23 33 24 53 3z m171 6 c4 -7 13 -7 26 0
29 16 59 -4 59 -40 0 -23 -5 -31 -25 -36 -31 -8 -55 10 -55 42 0 17 -6 24 -20
24 -16 0 -20 -7 -20 -35 0 -19 -4 -35 -10 -35 -5 0 -10 18 -10 39 0 38 5 44
42 50 4 0 10 -4 13 -9z m160 0 c4 -7 12 -7 23 -1 28 16 52 -5 52 -44 0 -19 -4
-35 -10 -35 -5 0 -10 16 -10 36 0 28 -3 35 -17 32 -12 -2 -19 -15 -22 -38 l-4
-35 -6 35 c-5 26 -11 35 -26 35 -15 0 -22 -9 -26 -35 l-6 -35 -2 42 c-1 32 3
43 17 46 28 8 31 7 37 -3z m176 0 c30 -17 24 -40 -12 -40 -20 0 -29 -4 -26
-12 2 -7 14 -13 26 -12 11 0 21 -3 21 -8 0 -12 -44 -10 -58 4 -17 17 -15 44 4
62 18 19 20 19 45 6z m183 -6 c32 -31 8 -82 -33 -71 -15 3 -21 -1 -24 -17 -2
-11 -5 5 -6 36 -1 56 1 60 41 67 4 0 14 -6 22 -15z m142 -19 c16 -40 -48 -74
-76 -40 -16 19 -5 62 18 68 21 4 51 -10 58 -28z m69 25 c3 -5 -3 -10 -14 -10
-14 0 -22 -8 -27 -27 -10 -48 -12 -49 -13 -6 -1 32 3 43 17 46 28 8 31 7 37
-3z m103 -2 c7 -7 11 -28 11 -47 l-2 -36 -6 35 c-4 26 -11 35 -26 35 -15 0
-22 -9 -26 -35 l-6 -35 -2 42 c-1 40 2 44 40 52 3 0 10 -4 17 -11z m103 2 c16
0 10 -87 -7 -104 -17 -18 -24 -19 -48 -10 -27 10 -18 21 14 16 22 -3 30 0 30
10 0 8 -9 14 -21 14 -12 -1 -28 9 -36 21 -13 20 -12 24 7 43 12 12 28 19 37
16 8 -3 19 -6 24 -6z m117 -2 c7 -7 11 -28 11 -47 l-2 -36 -6 35 c-4 26 -11
35 -26 35 -15 0 -22 -9 -26 -35 l-6 -35 -2 42 c-1 40 2 44 40 52 3 0 10 -4 17
-11z m100 -16 c14 -21 13 -22 -23 -22 -25 0 -35 -4 -32 -12 2 -7 16 -12 31
-11 14 1 24 -2 21 -8 -13 -20 -55 -9 -67 17 -11 23 -10 29 11 46 28 22 39 20
59 -10z m382 -7 c0 -10 -10 -15 -31 -15 -20 0 -29 -4 -26 -12 2 -7 14 -13 26
-12 11 0 21 -3 21 -8 0 -14 -47 -9 -60 7 -16 19 -5 62 18 68 23 5 52 -10 52
-28z m81 25 c5 0 9 -17 9 -38 0 -33 -3 -38 -26 -40 -34 -3 -54 14 -54 44 0 25
27 46 48 39 8 -3 18 -5 23 -5z m76 3 c15 -6 13 -9 -12 -14 l-30 -6 28 -13 c16
-8 27 -20 25 -29 -3 -17 -58 -29 -58 -13 0 6 8 8 19 5 29 -7 34 13 6 25 -27
12 -33 37 -12 45 6 3 13 6 14 6 1 1 10 -2 20 -6z m-3840 -65 c-2 -13 -4 -3 -4
22 0 25 2 35 4 23 2 -13 2 -33 0 -45z m143 18 c1 -6 8 2 16 17 9 16 18 27 20
24 5 -5 -24 -77 -31 -77 -5 0 -35 68 -35 79 1 10 30 -32 30 -43z m1142 14 c3
-16 1 -35 -4 -42 -4 -8 -8 4 -8 30 0 49 6 55 12 12z m1254 19 c4 -8 9 -8 17 0
17 17 31 13 17 -4 -10 -12 -10 -21 -1 -43 12 -26 12 -26 -5 -10 -17 17 -19 17
-37 0 -18 -16 -18 -16 -6 10 9 22 9 31 -1 43 -8 9 -8 15 -2 15 6 0 14 -5 18
-11z m361 -51 c-2 -13 -4 -3 -4 22 0 25 2 35 4 23 2 -13 2 -33 0 -45z m440 35
l10 -28 8 28 c4 15 11 27 15 27 5 0 13 -12 18 -27 l10 -28 11 29 c6 16 14 26
17 23 3 -2 -2 -22 -11 -43 l-17 -39 -12 30 -13 30 -16 -30 c-9 -16 -16 -27
-17 -24 0 4 -7 23 -15 43 -8 20 -12 36 -7 36 4 0 13 -12 19 -27z m150 -35 c-2
-13 -4 -3 -4 22 0 25 2 35 4 23 2 -13 2 -33 0 -45z m4829 -27 c-4 -6 -13 -11
-19 -11 -8 0 -7 3 2 9 8 5 10 14 6 22 -6 11 -5 11 5 2 7 -6 9 -16 6 -22z
m-7326 -154 l0 -64 -35 -1 c-29 -1 -38 3 -47 24 -11 23 -9 29 10 45 13 10 30
15 37 12 11 -4 15 2 15 21 0 14 5 26 10 26 6 0 10 -28 10 -63z m137 17 c25 10
43 -13 42 -53 -1 -37 -3 -35 -13 12 -4 18 -13 27 -26 27 -16 0 -20 -7 -20 -35
0 -19 -4 -35 -10 -35 -6 0 -10 26 -10 58 0 61 13 94 18 47 3 -19 8 -25 19 -21z
m200 -34 c4 0 15 8 26 18 19 16 19 16 6 -5 -11 -19 -11 -25 5 -42 11 -12 15
-21 9 -21 -5 0 -18 9 -29 21 l-19 21 -6 -24 c-4 -12 -7 9 -6 47 0 43 2 54 4
28 2 -24 7 -43 10 -43z m333 48 c0 -14 5 -18 15 -14 9 3 24 -3 35 -14 20 -20
20 -20 41 1 24 24 37 22 57 -9 14 -21 13 -22 -23 -22 -25 0 -35 -4 -32 -12 2
-7 16 -12 31 -11 14 1 24 -2 21 -8 -10 -15 -53 -10 -65 9 -9 16 -11 16 -20 0
-7 -12 -22 -17 -45 -16 l-35 1 0 64 c0 40 4 62 10 58 6 -3 10 -15 10 -27z
m510 -31 c0 -61 -1 -63 -26 -65 -34 -3 -54 14 -54 44 0 26 30 47 54 38 12 -5
16 0 16 20 0 14 2 26 5 26 3 0 5 -28 5 -63z m70 -8 c0 -33 -4 -59 -10 -59 -6
0 -10 29 -10 66 0 41 4 63 10 59 6 -3 10 -33 10 -66z m-1171 11 c-4 -3 -9 -21
-12 -40 l-4 -35 -1 38 c-1 20 -6 37 -11 37 -5 0 -4 11 2 24 l11 24 11 -22 c6
-11 8 -23 4 -26z m341 46 c0 -3 -4 -8 -10 -11 -5 -3 -10 -1 -10 4 0 6 5 11 10
11 6 0 10 -2 10 -4z m860 -6 c0 -5 -2 -10 -4 -10 -3 0 -8 5 -11 10 -3 6 -1 10
4 10 6 0 11 -4 11 -10z m180 0 c0 -5 -2 -10 -4 -10 -3 0 -8 5 -11 10 -3 6 -1
10 4 10 6 0 11 -4 11 -10z m49 -40 c-4 -3 -9 -21 -12 -40 l-4 -35 -1 38 c-1
21 -7 37 -14 38 -10 0 -10 2 0 6 6 2 12 14 12 26 0 21 1 21 13 -3 7 -14 10
-27 6 -30z m-1699 -30 c0 -35 -2 -37 -35 -38 -41 -2 -63 25 -45 57 12 23 26
29 57 23 19 -4 23 -11 23 -42z m78 38 c7 -7 11 -28 11 -47 l-2 -36 -6 35 c-4
26 -11 35 -26 35 -15 0 -22 -9 -26 -35 l-6 -35 -2 42 c-1 40 2 44 40 52 3 0
10 -4 17 -11z m411 -42 l-2 -41 -6 35 c-4 26 -11 35 -26 35 -15 0 -22 -9 -26
-35 l-6 -35 -2 42 c-1 36 2 42 22 45 39 7 47 -2 46 -46z m211 -1 c0 -19 -4
-35 -10 -35 -5 0 -10 16 -10 35 0 28 -4 35 -20 35 -16 0 -20 -7 -20 -35 0 -19
-4 -35 -10 -35 -5 0 -10 18 -10 39 0 33 4 40 23 43 38 7 57 -9 57 -47z m81 45
c5 0 9 -23 9 -50 0 -44 -3 -52 -25 -62 -21 -9 -29 -9 -40 3 -13 12 -10 14 17
14 17 0 33 6 36 14 3 9 -1 11 -17 6 -28 -8 -51 10 -51 41 0 25 27 46 48 39 8
-3 18 -5 23 -5z m393 -6 c19 -18 20 -28 6 -55 -16 -29 -58 -25 -72 7 -11 23
-10 29 11 45 28 23 35 23 55 3z m90 0 c18 -17 22 -74 6 -74 -5 0 -10 16 -10
35 0 28 -4 35 -20 35 -16 0 -20 -7 -20 -35 0 -19 -4 -35 -10 -35 -5 0 -10 18
-10 39 0 33 4 40 23 44 12 2 23 5 24 6 1 0 9 -6 17 -15z m281 6 c4 -7 12 -7
23 -1 28 16 52 -5 52 -44 0 -19 -4 -35 -10 -35 -5 0 -10 16 -10 35 0 28 -4 35
-20 35 -16 0 -20 -7 -21 -37 l-2 -38 -6 35 c-4 26 -11 35 -26 35 -15 0 -22 -9
-26 -35 l-6 -35 -2 42 c-1 32 3 43 17 46 28 8 31 7 37 -3z m225 0 c12 -8 11
-10 -7 -10 -29 0 -30 -16 -2 -23 13 -4 20 -12 17 -24 -4 -21 -35 -30 -51 -14
-7 7 -4 8 10 5 12 -3 24 -1 27 5 4 6 3 11 -1 11 -5 0 -18 6 -28 14 -16 12 -17
16 -6 30 16 19 21 19 41 6z m-1373 -62 c-2 -13 -4 -3 -4 22 0 25 2 35 4 23 2
-13 2 -33 0 -45z m200 0 c-2 -13 -4 -3 -4 22 0 25 2 35 4 23 2 -13 2 -33 0
-45z m451 35 l9 -28 13 28 c7 15 17 27 21 27 5 0 -2 -23 -15 -51 -26 -54 -43
-77 -32 -42 4 12 0 37 -8 57 -8 20 -11 36 -6 36 4 0 13 -12 18 -27z m422 -13
c0 -22 -4 -40 -10 -40 -5 0 -10 18 -10 40 0 22 5 40 10 40 6 0 10 -18 10 -40z
m180 0 c0 -22 -4 -40 -10 -40 -5 0 -10 18 -10 40 0 22 5 40 10 40 6 0 10 -18
10 -40z m170 -30 c0 -5 -4 -10 -10 -10 -5 0 -10 5 -10 10 0 6 5 10 10 10 6 0
10 -4 10 -10z m-1104 -899 c88 -40 128 -165 90 -274 -18 -50 -42 -76 -91 -98
-77 -35 -179 -13 -223 48 -47 66 -52 174 -13 252 42 81 147 113 237 72z m1578
-11 c50 -31 80 -99 80 -180 -2 -140 -86 -215 -219 -196 -86 13 -145 93 -144
196 0 99 32 158 104 192 50 24 131 19 179 -12z m717 20 c46 -13 63 -33 55 -64
-6 -24 -7 -25 -42 -10 -47 20 -123 15 -138 -8 -17 -28 4 -50 77 -78 87 -33
117 -62 117 -113 0 -53 -26 -93 -72 -112 -93 -37 -194 0 -213 78 -9 33 -4 34
43 2 77 -52 204 -20 164 42 -4 7 -41 25 -81 40 -84 32 -115 64 -115 118 0 86
97 135 205 105z m-4233 -29 c9 -15 33 -81 52 -145 19 -64 37 -116 40 -116 3 0
26 64 51 143 l44 142 37 3 37 3 -66 -196 -65 -196 -42 3 -41 3 -62 180 c-34
99 -62 186 -62 193 -1 7 11 12 29 12 23 0 35 -7 48 -29z m360 17 c7 -7 12 -40
12 -80 l0 -68 75 0 75 0 0 81 0 80 27 -3 c47 -5 53 -34 50 -218 l-2 -165 -37
-3 -38 -3 0 80 0 81 -75 0 -75 0 0 -80 0 -80 -35 0 -35 0 0 195 0 195 23 0
c13 0 28 -5 35 -12z m480 0 c8 -8 12 -66 12 -195 l0 -183 -35 0 -35 0 0 195 0
195 23 0 c13 0 28 -5 35 -12z m169 -10 c11 -13 49 -70 84 -128 l64 -105 3 128
c2 117 4 127 22 127 45 0 50 -20 50 -211 l0 -180 -37 3 c-36 3 -40 7 -113 125
l-75 122 -3 -124 -3 -125 -34 0 -35 0 0 195 0 195 28 0 c17 0 37 -9 49 -22z
m411 -52 c26 -41 61 -98 79 -128 l32 -53 1 128 c0 126 0 127 23 127 44 0 47
-13 47 -207 l0 -183 -34 0 c-32 0 -36 5 -107 120 l-74 119 -3 -119 -3 -120
-34 0 -34 0 -3 68 c-2 37 -2 124 0 195 l3 127 30 0 c26 0 35 -9 77 -74z m727
51 c8 -13 32 -78 52 -145 21 -67 40 -122 43 -122 3 0 26 64 51 143 l44 142 37
3 37 3 -66 -196 -65 -196 -42 3 -41 3 -62 180 c-34 99 -62 186 -62 193 -2 22
57 14 74 -11z m479 -4 c7 -16 25 -59 39 -98 14 -38 41 -114 61 -167 l35 -98
-39 0 c-37 0 -39 1 -55 50 l-17 51 -71 -3 -71 -3 -17 -45 c-15 -41 -20 -45
-54 -48 -28 -3 -36 0 -33 10 3 7 31 85 63 173 32 88 61 170 66 183 7 17 16 22
43 22 29 0 38 -5 50 -27z m414 -10 l3 -33 -55 0 -56 0 0 -160 0 -160 -35 0
-35 0 0 160 0 159 -57 3 c-46 2 -58 7 -61 21 -9 45 -1 48 150 45 l143 -3 3
-32z m112 18 c6 -12 10 -93 10 -195 l0 -176 -35 0 -35 0 0 195 0 195 25 0 c14
0 29 -8 35 -19z m660 -109 l75 -123 3 125 c3 123 3 126 25 126 44 0 47 -14 47
-208 l0 -183 -37 3 c-36 3 -39 7 -108 121 l-70 117 -3 -120 -3 -120 -39 0 -40
0 0 196 0 195 37 -3 c37 -3 40 -7 113 -126z m-1773 -548 c25 10 43 -13 42 -53
l-2 -36 -6 35 c-4 26 -11 35 -26 35 -15 0 -21 -9 -26 -35 -5 -33 -5 -32 -10
16 -5 57 3 109 9 61 3 -21 8 -27 19 -23z m-1042 26 c4 -6 -6 -7 -24 -4 -37 8
-61 -9 -61 -42 0 -35 27 -56 64 -49 23 5 27 4 16 -4 -58 -41 -123 40 -78 97
12 14 74 16 83 2z m503 -27 c13 -11 14 -13 1 -13 -9 0 -16 -12 -17 -32 -4 -45
-12 -49 -12 -5 0 23 -5 37 -12 38 -10 0 -10 2 0 6 6 2 12 14 13 26 0 15 2 17
6 7 3 -8 12 -21 21 -27z m80 -65 c22 -22 46 4 53 58 l6 49 1 -50 c2 -55 -10
-75 -43 -75 -33 0 -45 20 -44 75 l2 50 6 -47 c4 -27 12 -53 19 -60z m1032 82
c0 -11 6 -20 13 -20 9 0 9 -2 0 -8 -6 -4 -13 -23 -16 -42 l-4 -35 -1 38 c-1
20 -7 37 -13 37 -8 0 -8 4 1 15 6 8 9 19 5 25 -3 5 -1 10 4 10 6 0 11 -9 11
-20z m-759 -10 c12 -7 19 -21 19 -41 0 -29 -2 -30 -37 -27 -30 2 -38 7 -38 22
0 11 7 21 15 24 12 4 13 2 3 -9 -17 -18 -16 -29 2 -29 8 0 16 10 16 23 l2 22
4 -22 c5 -28 23 -31 23 -4 0 48 -74 53 -86 6 -8 -33 9 -53 49 -58 l32 -4 -32
-1 c-55 -3 -83 50 -46 90 18 20 45 23 74 8z m-777 -13 c38 -27 -2 -95 -41 -71
-25 16 -29 55 -7 71 10 7 21 13 24 13 3 0 14 -6 24 -13z m94 1 c7 -7 11 -28
11 -47 l-2 -36 -6 35 c-4 26 -11 35 -26 35 -15 0 -22 -9 -26 -35 l-6 -35 -2
42 c-1 40 2 44 40 52 3 0 10 -4 17 -11z m90 0 c7 -7 11 -28 11 -47 l-2 -36 -6
35 c-4 26 -11 35 -26 35 -15 0 -22 -9 -26 -35 l-6 -35 -2 42 c-1 40 2 44 40
52 3 0 10 -4 17 -11z m94 -7 c11 -19 12 -19 39 1 17 13 32 17 40 12 10 -6 7
-10 -11 -14 -34 -8 -36 -55 -2 -54 12 0 22 -3 22 -8 0 -17 -50 -7 -60 12 -12
23 -85 30 -77 8 2 -7 16 -12 31 -11 14 1 24 -2 21 -8 -11 -17 -54 -10 -65 11
-16 29 7 65 42 69 4 1 13 -8 20 -18z m355 12 c15 -6 13 -9 -12 -14 l-30 -6 28
-13 c16 -8 27 -20 25 -29 -4 -19 -36 -27 -51 -12 -7 7 -4 8 10 5 31 -8 36 11
8 24 -27 12 -33 37 -12 45 6 3 13 6 14 6 1 1 10 -2 20 -6z m496 -25 c3 -11 2
-30 -3 -41 -7 -18 -9 -16 -9 16 -1 30 -5 37 -21 37 -13 0 -22 -9 -26 -27 -10
-48 -12 -49 -13 -6 -1 36 2 42 22 45 32 5 44 -1 50 -24z m81 16 c18 -17 22
-74 6 -74 -5 0 -10 16 -10 35 0 28 -4 35 -20 35 -16 0 -20 -7 -20 -35 0 -19
-4 -35 -10 -35 -5 0 -10 18 -10 39 0 33 4 40 23 44 12 2 23 5 24 6 1 0 9 -6
17 -15z m90 3 c38 -27 -2 -95 -41 -71 -25 16 -29 55 -7 71 10 7 21 13 24 13 3
0 14 -6 24 -13z m177 3 c5 0 9 -17 9 -38 0 -33 -3 -38 -26 -40 -32 -2 -54 13
-54 39 0 24 29 52 47 45 8 -3 19 -6 24 -6z m199 -20 c14 -26 2 -49 -27 -56
-33 -9 -58 16 -49 49 9 39 57 43 76 7z m76 22 c13 -8 24 -82 12 -82 -4 0 -8
16 -8 36 0 31 -3 35 -22 32 -17 -2 -25 -12 -29 -38 l-6 -35 -2 42 c-1 40 2 44
39 52 3 0 10 -3 16 -7z m81 1 c15 -6 13 -9 -12 -14 l-30 -6 28 -13 c16 -8 27
-20 25 -29 -3 -17 -58 -29 -58 -13 0 6 9 8 20 5 11 -3 20 0 20 5 0 6 -9 16
-20 22 -22 12 -27 36 -7 43 6 3 13 6 14 6 1 1 10 -2 20 -6z m172 -52 l-2 -36
-6 35 c-4 26 -11 35 -26 35 -15 0 -22 -9 -26 -35 l-6 -35 -2 42 c-1 36 2 42
22 45 33 6 47 -10 46 -51z m-1138 22 l11 -28 15 28 c8 16 17 27 20 24 2 -3 -5
-22 -16 -44 l-19 -38 -16 37 c-17 40 -19 48 -11 48 3 0 10 -12 16 -27z m166
-35 c-2 -13 -4 -3 -4 22 0 25 2 35 4 23 2 -13 2 -33 0 -45z m316 35 l14 -27
16 30 c21 38 22 12 1 -28 l-16 -32 -19 35 c-10 19 -18 37 -19 42 0 15 10 6 23
-20z m237 -13 c0 -22 -4 -40 -10 -40 -5 0 -10 18 -10 40 0 22 5 40 10 40 6 0
10 -18 10 -40z m327 -22 c-2 -13 -4 -3 -4 22 0 25 2 35 4 23 2 -13 2 -33 0
-45z m-3951 -32 c26 -26 34 -42 34 -71 0 -29 -8 -45 -34 -71 -26 -26 -42 -34
-71 -34 -29 0 -45 8 -71 34 -26 26 -34 42 -34 71 0 52 53 105 105 105 29 0 45
-8 71 -34z"/>
<path d="M5356 5139 c-14 -11 -31 -29 -36 -40 -10 -18 -6 -19 105 -19 l116 0
-16 30 c-20 38 -43 50 -98 50 -30 0 -53 -7 -71 -21z"/>
<path d="M6538 5144 c-24 -13 -48 -42 -48 -58 0 -3 50 -6 110 -6 72 0 110 4
110 11 0 6 -13 24 -29 40 -24 23 -38 29 -73 29 -24 -1 -55 -7 -70 -16z"/>
<path d="M8980 5128 c-123 -83 -23 -281 113 -224 81 33 102 145 40 208 -43 42
-105 49 -153 16z"/>
<path d="M7291 5138 c-62 -33 -86 -133 -46 -194 36 -55 124 -67 179 -23 54 42
55 149 2 198 -30 28 -100 38 -135 19z"/>
<path d="M12829 4479 c-46 -55 -101 -119 -121 -142 -21 -23 -40 -50 -44 -59
-3 -10 -9 -18 -13 -18 -5 0 -27 -24 -49 -53 -22 -30 -46 -60 -54 -68 -7 -8
-51 -61 -98 -119 -46 -58 -101 -125 -122 -149 -25 -29 -38 -54 -38 -72 0 -23
-5 -29 -22 -30 -13 0 -36 -2 -53 -4 -16 -1 -75 -5 -130 -9 -55 -3 -163 -10
-240 -15 -244 -17 -407 -26 -493 -26 -57 0 -81 -3 -78 -11 2 -6 -1 -17 -7 -23
-9 -10 -7 -16 8 -28 17 -13 59 -14 314 -8 590 13 582 13 694 64 79 35 198 159
305 316 29 44 137 194 149 210 22 27 172 245 192 278 23 38 22 67 -2 67 -8 0
-52 -45 -98 -101z"/>
<path d="M11515 3270 c-88 -3 -153 -7 -145 -8 11 -2 8 -8 -10 -22 l-25 -20 28
0 c16 0 37 -5 48 -10 13 -7 19 -7 19 0 0 14 27 13 33 -2 4 -10 8 -9 16 2 6 8
11 10 11 4 0 -6 14 -11 31 -12 18 0 36 -5 42 -11 6 -6 18 -6 32 -1 13 5 26 6
29 3 3 -3 22 -7 43 -9 21 -2 49 -7 63 -10 14 -3 49 -8 79 -10 68 -4 154 -15
163 -20 3 -2 54 -5 112 -6 90 -1 109 1 126 17 11 10 21 16 23 14 7 -10 30 -65
31 -74 1 -5 9 -25 19 -42 10 -18 15 -33 12 -33 -3 0 4 -18 15 -40 11 -21 20
-46 20 -55 0 -8 5 -15 10 -15 6 0 10 -8 10 -18 0 -10 11 -41 25 -68 29 -57 29
-58 13 -48 -7 4 -5 -1 4 -12 9 -10 19 -32 22 -48 3 -16 11 -33 17 -37 6 -4 8
-12 5 -18 -4 -6 -3 -11 1 -11 5 0 9 -9 9 -20 0 -11 -4 -20 -8 -20 -4 0 -8 -5
-8 -11 0 -5 3 -8 8 -6 4 3 7 -9 7 -26 0 -20 5 -31 12 -30 7 2 10 -3 7 -10 -2
-7 41 -102 96 -211 55 -109 100 -205 100 -213 0 -17 -5 -20 80 44 36 27 49 32
81 28 21 -3 50 1 65 7 57 26 32 82 -311 693 -16 28 -46 84 -68 125 -60 112
-122 203 -167 244 l-41 36 -312 -2 c-171 -2 -384 -5 -472 -8z"/>
<path d="M11316 3262 c5 -4 12 -11 15 -15 3 -5 9 -2 12 5 3 9 -3 14 -15 15
-11 1 -16 -1 -12 -5z"/>
<path d="M11334 2496 c-71 -71 -235 -226 -325 -309 -96 -88 -109 -97 -130 -88
-13 6 -125 17 -249 25 -297 20 -363 22 -367 9 -2 -6 0 -14 5 -17 19 -12 463
-68 547 -69 76 -1 97 2 135 22 47 24 430 396 430 417 0 25 -25 30 -46 10z"/>
<path d="M11525 2300 c-3 -5 -1 -10 4 -10 6 0 11 5 11 10 0 6 -2 10 -4 10 -3
0 -8 -4 -11 -10z"/>
<path d="M11363 2128 c-252 -256 -248 -252 -246 -310 3 -66 166 -585 203 -645
24 -40 36 -41 71 -7 16 15 43 28 68 31 29 4 39 9 32 17 -5 6 -27 61 -49 122
-42 119 -65 167 -91 195 -17 19 -35 54 -91 174 -18 39 -39 83 -46 99 -19 39
-18 54 6 61 10 3 46 41 79 83 34 42 65 82 70 88 5 6 36 49 70 95 33 46 68 93
76 104 16 21 20 45 7 45 -5 0 -76 -69 -159 -152z"/>
<path d="M13146 2130 c20 -43 24 -47 24 -29 0 8 -10 25 -21 39 l-20 25 17 -35z"/>
<path d="M5341 4127 c-65 -33 -89 -135 -45 -194 49 -66 154 -66 194 0 24 39
26 106 5 147 -27 53 -100 75 -154 47z"/>
<path d="M4186 4129 c-14 -11 -31 -29 -36 -40 -10 -18 -6 -19 105 -19 l116 0
-12 23 c-30 59 -120 78 -173 36z"/>
<path d="M4751 4127 c-43 -22 -65 -62 -64 -117 1 -61 22 -97 70 -117 102 -42
197 54 161 163 -23 68 -105 103 -167 71z"/>
<path d="M7018 4124 c-58 -31 -78 -136 -36 -189 73 -93 218 -46 218 71 0 59
-21 97 -64 118 -42 20 -82 20 -118 0z"/>
<path d="M8028 4122 c-65 -40 -76 -148 -21 -204 55 -54 148 -44 186 21 21 36
22 102 2 141 -29 56 -112 77 -167 42z"/>
<path d="M5317 3017 c-3 -9 0 -22 6 -32 17 -22 49 -9 45 19 -4 25 -43 34 -51
13z"/>
<path d="M5415 3020 c-4 -6 5 -10 19 -10 14 0 26 5 26 10 0 6 -9 10 -19 10
-11 0 -23 -4 -26 -10z"/>
<path d="M6134 3016 c-9 -24 4 -48 23 -44 12 2 18 12 18 28 0 29 -32 41 -41
16z"/>
<path d="M9054 3015 c-9 -23 4 -47 23 -43 11 2 19 14 21 31 3 22 -1 27 -18 27
-11 0 -23 -7 -26 -15z"/>
<path d="M5195 3020 c-4 -6 5 -10 19 -10 14 0 26 5 26 10 0 6 -9 10 -19 10
-11 0 -23 -4 -26 -10z"/>
<path d="M5565 3020 c-4 -6 7 -10 25 -10 18 0 29 4 25 10 -3 6 -15 10 -25 10
-10 0 -22 -4 -25 -10z"/>
<path d="M5735 3020 c-4 -6 7 -10 25 -10 18 0 29 4 25 10 -3 6 -15 10 -25 10
-10 0 -22 -4 -25 -10z"/>
<path d="M6005 3020 c-4 -6 7 -10 25 -10 18 0 29 4 25 10 -3 6 -15 10 -25 10
-10 0 -22 -4 -25 -10z"/>
<path d="M6225 3020 c-4 -6 5 -10 19 -10 14 0 26 5 26 10 0 6 -9 10 -19 10
-11 0 -23 -4 -26 -10z"/>
<path d="M6547 3023 c-13 -12 -7 -44 9 -50 20 -7 45 22 37 43 -5 14 -35 19
-46 7z"/>
<path d="M6844 3015 c-4 -9 0 -23 8 -31 20 -20 50 -7 46 20 -4 26 -45 35 -54
11z"/>
<path d="M7217 3023 c-13 -12 -7 -44 9 -50 20 -7 45 22 37 43 -5 14 -35 19
-46 7z"/>
<path d="M7455 3020 c-4 -6 5 -10 19 -10 14 0 26 5 26 10 0 6 -9 10 -19 10
-11 0 -23 -4 -26 -10z"/>
<path d="M7694 3015 c-4 -9 0 -23 8 -31 20 -20 50 -7 46 20 -4 26 -45 35 -54
11z"/>
<path d="M7970 3020 c0 -5 12 -10 26 -10 14 0 23 4 19 10 -3 6 -15 10 -26 10
-10 0 -19 -4 -19 -10z"/>
<path d="M8147 3023 c-13 -12 -7 -44 9 -50 20 -7 45 22 37 43 -5 14 -35 19
-46 7z"/>
<path d="M8272 3003 c2 -20 8 -28 23 -28 31 0 28 49 -3 53 -20 3 -23 0 -20
-25z"/>
<path d="M8554 3015 c-8 -19 3 -35 26 -35 19 0 30 17 23 38 -6 17 -42 15 -49
-3z"/>
<path d="M8775 3020 c-4 -6 5 -10 19 -10 14 0 26 5 26 10 0 6 -9 10 -19 10
-11 0 -23 -4 -26 -10z"/>
<path d="M9150 3020 c0 -5 12 -10 26 -10 14 0 23 4 19 10 -3 6 -15 10 -26 10
-10 0 -19 -4 -19 -10z"/>
<path d="M9236 3014 c-4 -10 -1 -24 7 -31 19 -19 49 -5 45 21 -4 27 -43 34
-52 10z"/>
<path d="M6454 2785 c-9 -23 4 -47 23 -43 11 2 19 14 21 31 3 22 -1 27 -18 27
-11 0 -23 -7 -26 -15z"/>
<path d="M7187 2787 c-3 -9 0 -22 6 -32 17 -22 49 -9 45 19 -4 25 -43 34 -51
13z"/>
<path d="M7285 2790 c-4 -6 5 -10 19 -10 14 0 26 5 26 10 0 6 -9 10 -19 10
-11 0 -23 -4 -26 -10z"/>
<path d="M7633 2784 c-3 -8 2 -23 11 -32 15 -15 17 -15 32 0 21 21 11 48 -16
48 -11 0 -23 -7 -27 -16z"/>
<path d="M6264 2785 c-9 -23 4 -47 23 -43 11 2 19 14 21 31 3 22 -1 27 -18 27
-11 0 -23 -7 -26 -15z"/>
<path d="M7054 2785 c-4 -9 -2 -21 4 -27 16 -16 47 -5 47 17 0 26 -42 34 -51
10z"/>
<path d="M7454 2785 c-9 -23 4 -47 23 -43 11 2 19 14 21 31 3 22 -1 27 -18 27
-11 0 -23 -7 -26 -15z"/>
<path d="M6913 1780 c-32 -13 -54 -64 -54 -126 0 -92 35 -134 112 -134 46 0
85 30 98 76 12 44 5 122 -15 152 -25 38 -89 53 -141 32z"/>
<path d="M8470 1777 c-73 -36 -79 -192 -9 -241 47 -33 128 -15 154 33 18 36
20 129 3 166 -22 49 -94 69 -148 42z"/>
<path d="M7666 1702 c-10 -31 -21 -63 -23 -69 -4 -9 9 -13 45 -13 l50 0 -25
67 c-13 37 -26 69 -27 70 -1 2 -11 -23 -20 -55z"/>
<path d="M6133 1144 c-3 -8 2 -23 11 -32 15 -15 17 -15 32 0 21 21 11 48 -16
48 -11 0 -23 -7 -27 -16z"/>
<path d="M6415 1150 c-4 -6 5 -10 19 -10 14 0 26 5 26 10 0 6 -9 10 -19 10
-11 0 -23 -4 -26 -10z"/>
<path d="M7433 1144 c-3 -8 2 -23 11 -32 15 -15 17 -15 32 0 21 21 11 48 -16
48 -11 0 -23 -7 -27 -16z"/>
<path d="M7612 1133 c2 -20 8 -28 23 -28 31 0 28 49 -3 53 -20 3 -23 0 -20
-25z"/>
<path d="M7796 1144 c-4 -10 -1 -24 7 -31 19 -19 49 -5 45 21 -4 27 -43 34
-52 10z"/>
</g>
</svg>
